<svg width="769" height="770" version="1.1" xmlns="http://www.w3.org/2000/svg" desc="Created with imagetracer.js version 1.2.6" ><path fill="rgb(45,59,105)" stroke="rgb(45,59,105)" stroke-width="1" opacity="0.4980392156862745" d="M 0 0 L 768.5 0 L 769 0.5 L 769 30.5 L 768 30.5 Q 765.7 16.8 756.5 10 Q 750.5 4 740.5 2 L 29.5 2 Q 15.9 4.9 9 14.5 Q 3.1 21.1 1 31.5 L 1 739.5 Q 4.2 753.3 13.5 761 Q 19.5 767 29.5 769 L 412 769.5 L 0 770 L 0 0 Z " /><path fill="rgb(45,59,105)" stroke="rgb(45,59,105)" stroke-width="1" opacity="0.4980392156862745" d="M 768.5 740 L 769 770 L 531 769.5 L 740.5 769 Q 754.1 766.1 761 756.5 Q 766.6 750.1 768.5 740 Z " /><path fill="rgb(72,94,163)" stroke="rgb(72,94,163)" stroke-width="1" opacity="0.996078431372549" d="M 29.5 2 L 33 2.5 L 29.5 3 L 29.5 2 Z " /><path fill="rgb(72,94,163)" stroke="rgb(72,94,163)" stroke-width="1" opacity="0.996078431372549" d="M 737.5 2 L 741 2.5 L 737.5 3 L 737.5 2 Z " /><path fill="rgb(72,94,163)" stroke="rgb(72,94,163)" stroke-width="1" opacity="0.996078431372549" d="M 25.5 3 L 28 3.5 L 16.5 9 L 17.5 7 L 25.5 3 Z " /><path fill="rgb(72,94,163)" stroke="rgb(72,94,163)" stroke-width="1" opacity="0.996078431372549" d="M 742.5 3 Q 750.1 3.9 754 8.5 L 752.5 9 L 742.5 4 L 742.5 3 Z " /><path fill="rgb(72,94,163)" stroke="rgb(72,94,163)" stroke-width="1" opacity="0.996078431372549" d="M 13.5 10 L 12 12.5 L 7.5 18 L 9 15.5 L 13.5 10 Z " /><path fill="rgb(72,94,163)" stroke="rgb(72,94,163)" stroke-width="1" opacity="0.996078431372549" d="M 756.5 10 L 763 17.5 L 758 13.5 L 756.5 10 Z " /><path fill="rgb(72,94,163)" stroke="rgb(72,94,163)" stroke-width="1" opacity="0.996078431372549" d="M 6.5 19 L 6 20.5 L 3.5 26 L 3 24.5 L 6.5 19 Z " /><path fill="rgb(72,94,163)" stroke="rgb(72,94,163)" stroke-width="1" opacity="0.996078431372549" d="M 763.5 19 L 766 23.5 L 765 23.5 L 763.5 19 Z " /><path fill="rgb(72,94,163)" stroke="rgb(72,94,163)" stroke-width="1" opacity="0.996078431372549" d="M 2.5 27 L 3 32.5 L 2 33.5 L 2 737.5 Q 4.3 738.8 3 743.5 L 2 743.5 L 1 739.5 L 1 31.5 L 2.5 27 Z " /><path fill="rgb(72,94,163)" stroke="rgb(72,94,163)" stroke-width="1" opacity="0.996078431372549" d="M 767.5 27 L 769 31.5 L 769 739.5 L 767.5 744 L 767 738.5 L 768 737.5 L 768 33.5 Q 765.4 31.9 767.5 27 Z " /><path fill="rgb(72,94,163)" stroke="rgb(72,94,163)" stroke-width="1" opacity="0.996078431372549" d="M 4.5 747 L 7 751.5 L 5 750.5 L 4.5 747 Z " /><path fill="rgb(72,94,163)" stroke="rgb(72,94,163)" stroke-width="1" opacity="0.996078431372549" d="M 765.5 747 L 766 748.5 L 763.5 752 L 764 750.5 L 765.5 747 Z " /><path fill="rgb(72,94,163)" stroke="rgb(72,94,163)" stroke-width="1" opacity="0.996078431372549" d="M 7.5 753 L 14 760.5 L 9 756.5 L 7.5 753 Z " /><path fill="rgb(72,94,163)" stroke="rgb(72,94,163)" stroke-width="1" opacity="0.996078431372549" d="M 762.5 753 L 761 755.5 L 756.5 761 L 758 758.5 L 762.5 753 Z " /><path fill="rgb(72,94,163)" stroke="rgb(72,94,163)" stroke-width="1" opacity="0.996078431372549" d="M 16.5 762 L 28 767.5 L 25.5 768 L 17.5 764 L 16.5 762 Z " /><path fill="rgb(72,94,163)" stroke="rgb(72,94,163)" stroke-width="1" opacity="0.996078431372549" d="M 752.5 762 L 754 762.5 Q 750.1 767.1 742.5 768 L 742.5 767 L 752.5 762 Z " /><path fill="rgb(72,94,163)" stroke="rgb(72,94,163)" stroke-width="1" opacity="0.996078431372549" d="M 29.5 768 L 33 768.5 L 29.5 769 L 29.5 768 Z " /><path fill="rgb(72,94,163)" stroke="rgb(72,94,163)" stroke-width="1" opacity="0.996078431372549" d="M 737.5 768 L 741 768.5 L 737.5 769 L 737.5 768 Z " /><path fill="rgb(218,222,235)" stroke="rgb(218,222,235)" stroke-width="1" opacity="0.9686274509803922" d="M 533.5 118 L 586 118.5 L 533.5 119 L 533.5 118 Z " /><path fill="rgb(218,222,235)" stroke="rgb(218,222,235)" stroke-width="1" opacity="0.9686274509803922" d="M 525.5 119 L 529 119.5 L 525.5 120 L 525.5 119 Z " /><path fill="rgb(218,222,235)" stroke="rgb(218,222,235)" stroke-width="1" opacity="0.9686274509803922" d="M 602.5 119 L 624 119.5 L 602.5 120 L 602.5 119 Z " /><path fill="rgb(218,222,235)" stroke="rgb(218,222,235)" stroke-width="1" opacity="0.9686274509803922" d="M 519.5 120 L 522 120.5 L 519.5 121 L 519.5 120 Z " /><path fill="rgb(218,222,235)" stroke="rgb(218,222,235)" stroke-width="1" opacity="0.9686274509803922" d="M 644.5 120 Q 650.5 118.5 652 121.5 L 652 228 L 581.5 228 L 581.5 227 L 651 227 L 651 121 L 644.5 121 L 644.5 120 Z " /><path fill="rgb(218,222,235)" stroke="rgb(218,222,235)" stroke-width="1" opacity="0.9686274509803922" d="M 502.5 124 L 505 124.5 L 494.5 128 L 494.5 127 L 502.5 124 Z " /><path fill="rgb(218,222,235)" stroke="rgb(218,222,235)" stroke-width="1" opacity="0.9686274509803922" d="M 482.5 132 L 484 132.5 L 474.5 138 L 475.5 136 L 482.5 132 Z " /><path fill="rgb(218,222,235)" stroke="rgb(218,222,235)" stroke-width="1" opacity="0.9686274509803922" d="M 469.5 140 L 468.5 142 L 469.5 140 Z " /><path fill="rgb(218,222,235)" stroke="rgb(218,222,235)" stroke-width="1" opacity="0.9686274509803922" d="M 466.5 142 L 464.5 145 L 466.5 142 Z " /><path fill="rgb(218,222,235)" stroke="rgb(218,222,235)" stroke-width="1" opacity="0.9686274509803922" d="M 462.5 145 L 460.5 148 L 462.5 145 Z " /><path fill="rgb(218,222,235)" stroke="rgb(218,222,235)" stroke-width="1" opacity="0.9686274509803922" d="M 455.5 151 L 452.5 155 L 455.5 151 Z " /><path fill="rgb(218,222,235)" stroke="rgb(218,222,235)" stroke-width="1" opacity="0.9686274509803922" d="M 448.5 159 L 445.5 163 L 448.5 159 Z " /><path fill="rgb(218,222,235)" stroke="rgb(218,222,235)" stroke-width="1" opacity="0.9686274509803922" d="M 444.5 164 L 442.5 167 L 444.5 164 Z " /><path fill="rgb(218,222,235)" stroke="rgb(218,222,235)" stroke-width="1" opacity="0.9686274509803922" d="M 440.5 169 L 439.5 171 L 440.5 169 Z " /><path fill="rgb(218,222,235)" stroke="rgb(218,222,235)" stroke-width="1" opacity="0.9686274509803922" d="M 438.5 172 L 438 173.5 L 434.5 179 L 435 177.5 L 438.5 172 Z " /><path fill="rgb(218,222,235)" stroke="rgb(218,222,235)" stroke-width="1" opacity="0.9686274509803922" d="M 429.5 187 L 430 188.5 L 427.5 193 L 427 191.5 L 429.5 187 Z " /><path fill="rgb(218,222,235)" stroke="rgb(218,222,235)" stroke-width="1" opacity="0.9686274509803922" d="M 426.5 194 L 427 195.5 L 425.5 198 L 425 196.5 L 426.5 194 Z " /><path fill="rgb(218,222,235)" stroke="rgb(218,222,235)" stroke-width="1" opacity="0.9686274509803922" d="M 419.5 213 L 420 215.5 L 416.5 228 L 416 224.5 L 419.5 213 Z " /><path fill="rgb(218,222,235)" stroke="rgb(218,222,235)" stroke-width="1" opacity="0.9686274509803922" d="M 574.5 228 L 579 228.5 L 574.5 229 L 574.5 228 Z " /><path fill="rgb(218,222,235)" stroke="rgb(218,222,235)" stroke-width="1" opacity="0.9686274509803922" d="M 569.5 229 L 572 229.5 L 569.5 230 L 569.5 229 Z " /><path fill="rgb(218,222,235)" stroke="rgb(218,222,235)" stroke-width="1" opacity="0.9686274509803922" d="M 415.5 230 L 416 232.5 L 415 232.5 L 415.5 230 Z " /><path fill="rgb(218,222,235)" stroke="rgb(218,222,235)" stroke-width="1" opacity="0.9686274509803922" d="M 555.5 234 L 557 234.5 L 552.5 237 L 553.5 235 L 555.5 234 Z " /><path fill="rgb(218,222,235)" stroke="rgb(218,222,235)" stroke-width="1" opacity="0.9686274509803922" d="M 414.5 235 L 415 237.5 L 414 237.5 L 414.5 235 Z " /><path fill="rgb(218,222,235)" stroke="rgb(218,222,235)" stroke-width="1" opacity="0.9686274509803922" d="M 550.5 237 L 549.5 239 L 550.5 237 Z " /><path fill="rgb(218,222,235)" stroke="rgb(218,222,235)" stroke-width="1" opacity="0.9686274509803922" d="M 547.5 239 L 540 247.5 L 535.5 256 L 535 254.5 Q 539.3 244.8 547.5 239 Z " /><path fill="rgb(218,222,235)" stroke="rgb(218,222,235)" stroke-width="1" opacity="0.9686274509803922" d="M 413.5 241 L 414 243.5 L 413 243.5 L 413.5 241 Z " /><path fill="rgb(218,222,235)" stroke="rgb(218,222,235)" stroke-width="1" opacity="0.9686274509803922" d="M 412.5 249 L 413 253.5 L 412 253.5 L 412.5 249 Z " /><path fill="rgb(218,222,235)" stroke="rgb(218,222,235)" stroke-width="1" opacity="0.9686274509803922" d="M 531.5 266 L 532 269.5 L 531 269.5 L 531.5 266 Z " /><path fill="rgb(218,222,235)" stroke="rgb(218,222,235)" stroke-width="1" opacity="0.9686274509803922" d="M 530.5 273 L 531 355.5 L 530 355.5 L 530.5 273 Z " /><path fill="rgb(218,222,235)" stroke="rgb(218,222,235)" stroke-width="1" opacity="0.9686274509803922" d="M 411.5 355 L 410.5 357 L 310 357 L 310 470 L 411.5 470 L 412 471.5 L 410.5 471 L 309 471 L 309 356 L 410.5 356 L 411.5 355 Z " /><path fill="rgb(218,222,235)" stroke="rgb(218,222,235)" stroke-width="1" opacity="0.9686274509803922" d="M 532.5 356 L 644 356.5 L 532.5 357 L 532.5 356 Z " /><path fill="rgb(218,222,235)" stroke="rgb(218,222,235)" stroke-width="1" opacity="0.9686274509803922" d="M 644.5 358 L 645 361.5 L 644 361.5 L 644.5 358 Z " /><path fill="rgb(218,222,235)" stroke="rgb(218,222,235)" stroke-width="1" opacity="0.9686274509803922" d="M 643.5 365 L 644 369.5 L 643 369.5 L 643.5 365 Z " /><path fill="rgb(218,222,235)" stroke="rgb(218,222,235)" stroke-width="1" opacity="0.9686274509803922" d="M 642.5 373 L 643 377.5 L 642 377.5 L 642.5 373 Z " /><path fill="rgb(218,222,235)" stroke="rgb(218,222,235)" stroke-width="1" opacity="0.9686274509803922" d="M 641.5 380 L 642 386.5 L 641 386.5 L 641.5 380 Z " /><path fill="rgb(218,222,235)" stroke="rgb(218,222,235)" stroke-width="1" opacity="0.9686274509803922" d="M 640.5 388 L 641 394.5 L 640 394.5 L 640.5 388 Z " /><path fill="rgb(218,222,235)" stroke="rgb(218,222,235)" stroke-width="1" opacity="0.9686274509803922" d="M 639.5 396 L 640 402.5 L 639 402.5 L 639.5 396 Z " /><path fill="rgb(218,222,235)" stroke="rgb(218,222,235)" stroke-width="1" opacity="0.9686274509803922" d="M 638.5 404 L 639 410.5 L 638 410.5 L 638.5 404 Z " /><path fill="rgb(218,222,235)" stroke="rgb(218,222,235)" stroke-width="1" opacity="0.9686274509803922" d="M 637.5 415 L 638 417.5 L 637 417.5 L 637.5 415 Z " /><path fill="rgb(218,222,235)" stroke="rgb(218,222,235)" stroke-width="1" opacity="0.9686274509803922" d="M 636.5 423 L 637 425.5 L 636 425.5 L 636.5 423 Z " /><path fill="rgb(218,222,235)" stroke="rgb(218,222,235)" stroke-width="1" opacity="0.9686274509803922" d="M 635.5 431 L 636 433.5 L 635 433.5 L 635.5 431 Z " /><path fill="rgb(218,222,235)" stroke="rgb(218,222,235)" stroke-width="1" opacity="0.9686274509803922" d="M 634.5 438 L 635 441.5 L 634 441.5 L 634.5 438 Z " /><path fill="rgb(218,222,235)" stroke="rgb(218,222,235)" stroke-width="1" opacity="0.9686274509803922" d="M 633.5 445 L 634 449.5 L 633 449.5 L 633.5 445 Z " /><path fill="rgb(218,222,235)" stroke="rgb(218,222,235)" stroke-width="1" opacity="0.9686274509803922" d="M 632.5 453 L 633 458.5 L 632 458.5 L 632.5 453 Z " /><path fill="rgb(218,222,235)" stroke="rgb(218,222,235)" stroke-width="1" opacity="0.9686274509803922" d="M 631.5 461 L 632 467.5 L 631 471 L 531 471 L 531 770 L 412.5 770 L 412.5 769 L 530 769 L 530 471.5 L 531.5 470 L 630 470 L 631.5 461 Z " /><path fill="rgb(254,254,254)" stroke="rgb(254,254,254)" stroke-width="1" opacity="1" d="M 529.5 119 L 601.5 119 L 602.5 120 L 643.5 120 L 644.5 121 L 651 121 L 651 227 L 581.5 227 L 580.5 228 L 569.5 229 L 555.5 234 Q 545.5 239 539 247.5 L 533 259.5 L 530 273.5 L 530 356 L 532.5 357 L 643.5 357 L 645 356.5 L 643 365.5 L 642 379.5 L 641 380.5 L 641 387.5 L 638 404.5 L 638 414.5 L 637 415.5 L 636 430.5 L 633 445.5 L 632 460.5 L 630 470 L 531.5 470 L 530 471.5 L 530 769 L 412 769 L 412 470.5 L 411.5 470 L 310 470 L 310 357 L 410.5 357 L 412 355.5 L 412 254.5 L 413 253.5 L 413 244.5 L 416 228.5 L 421 208.5 L 430 186.5 Q 441.5 164 459.5 148 Q 472.9 136.4 490.5 129 L 508.5 123 L 529.5 119 Z " /><path fill="rgb(72,94,163)" stroke="rgb(72,94,163)" stroke-width="1" opacity="1" d="M 33.5 2 L 736.5 2 Q 750.2 4.3 758 12.5 L 767 26.5 Q 765.5 32 768 33.5 L 768 737.5 Q 765.5 739 767 744.5 L 763 752.5 L 754.5 762 L 744.5 767 L 736.5 769 L 531 769 L 531 471.5 L 531.5 471 L 630.5 471 L 631 468.5 L 632 467.5 L 633 450.5 L 634 449.5 L 634 442.5 L 635 441.5 L 635 434.5 L 636 433.5 L 637 418.5 L 639 410.5 L 639 403.5 L 640 402.5 L 640 395.5 L 641 394.5 L 645 356 L 531 356 L 531 270.5 Q 534.4 249.4 548.5 239 L 561.5 232 L 579.5 228 L 652 228 L 652 121.5 L 650.5 120 L 586.5 119 L 585.5 118 L 533.5 118 L 502.5 124 L 482.5 132 Q 465.2 141.2 452 154.5 Q 426 181.5 416 224.5 L 416 229.5 L 413 241.5 L 413 248.5 L 412 249.5 L 412 354.5 L 410.5 356 L 309 356 L 309 471 L 410.5 471 L 412 472.5 L 412 769 L 33.5 769 Q 19.8 766.7 12 758.5 L 3 744.5 Q 4.5 739 2 737.5 L 2 33.5 Q 4.5 32 3 26.5 L 7 18.5 L 15.5 9 L 25.5 4 L 33.5 2 Z " /></svg>